<?xml version="1.0" encoding="UTF-8" standalone="no"?>
<!DOCTYPE svg PUBLIC "-//W3C//DTD SVG 1.1//EN"
 "http://www.w3.org/Graphics/SVG/1.1/DTD/svg11.dtd">
<!-- Generated by graphviz version 2.40.1 (20161225.0304)
 -->
<!-- Title: dependencies Pages: 1 -->
<svg width="922pt" height="284pt"
 viewBox="0.00 0.00 922.00 284.00" xmlns="http://www.w3.org/2000/svg" xmlns:xlink="http://www.w3.org/1999/xlink">
<g id="graph0" class="graph" transform="scale(1 1) rotate(0) translate(4 280)">
<title>dependencies</title>
<polygon fill="#ffffff" stroke="transparent" points="-4,4 -4,-280 918,-280 918,4 -4,4"/>
<text text-anchor="start" x="436.0091" y="-42.4" font-family="sans-serif" font-weight="bold" font-size="14.00" fill="#000000">Legend</text>
<polygon fill="#ffffb3" stroke="transparent" points="223,-10 223,-30 243,-30 243,-10 223,-10"/>
<text text-anchor="start" x="246.629" y="-15.4" font-family="sans-serif" font-size="14.00" fill="#000000"> &#160;Declarations</text>
<polygon fill="#8dd3c7" stroke="transparent" points="336,-10 336,-30 356,-30 356,-10 336,-10"/>
<text text-anchor="start" x="359.7251" y="-15.4" font-family="sans-serif" font-size="14.00" fill="#000000"> &#160;Module</text>
<polygon fill="#80b1d3" stroke="transparent" points="422,-10 422,-30 442,-30 442,-10 422,-10"/>
<text text-anchor="start" x="445.7812" y="-15.4" font-family="sans-serif" font-size="14.00" fill="#000000"> &#160;Bootstrap</text>
<polygon fill="#fdb462" stroke="transparent" points="519,-10 519,-30 539,-30 539,-10 519,-10"/>
<text text-anchor="start" x="542.6732" y="-15.4" font-family="sans-serif" font-size="14.00" fill="#000000"> &#160;Providers</text>
<polygon fill="#fb8072" stroke="transparent" points="615,-10 615,-30 635,-30 635,-10 615,-10"/>
<text text-anchor="start" x="638.7258" y="-15.4" font-family="sans-serif" font-size="14.00" fill="#000000"> &#160;Exports</text>
<g id="clust1" class="cluster">
<title>cluster_NgUserManagementModule</title>
<polygon fill="none" stroke="#000000" stroke-dasharray="1,5" points="8,-70 8,-268 906,-268 906,-70 8,-70"/>
</g>
<g id="clust3" class="cluster">
<title>cluster_NgUserManagementModule_imports</title>
<polygon fill="none" stroke="#000000" points="485,-78 485,-130 635,-130 635,-78 485,-78"/>
</g>
<g id="clust4" class="cluster">
<title>cluster_NgUserManagementModule_exports</title>
<polygon fill="none" stroke="#000000" points="16,-208 16,-260 898,-260 898,-208 16,-208"/>
</g>
<g id="clust6" class="cluster">
<title>cluster_NgUserManagementModule_providers</title>
<polygon fill="none" stroke="#000000" points="279,-78 279,-130 477,-130 477,-78 279,-78"/>
</g>
<!-- AdminPopupModule -->
<g id="node1" class="node">
<title>AdminPopupModule</title>
<polygon fill="#8dd3c7" stroke="#000000" points="627.2204,-122 624.2204,-126 603.2204,-126 600.2204,-122 492.7796,-122 492.7796,-86 627.2204,-86 627.2204,-122"/>
<text text-anchor="middle" x="560" y="-99.8" font-family="Times,serif" font-size="14.00" fill="#000000">AdminPopupModule</text>
</g>
<!-- NgUserManagementModule -->
<g id="node2" class="node">
<title>NgUserManagementModule</title>
<polygon fill="#8dd3c7" stroke="#000000" points="557.1671,-187 554.1671,-191 533.1671,-191 530.1671,-187 380.8329,-187 380.8329,-151 557.1671,-151 557.1671,-187"/>
<text text-anchor="middle" x="469" y="-164.8" font-family="Times,serif" font-size="14.00" fill="#000000">NgUserManagementModule</text>
</g>
<!-- AdminPopupModule&#45;&gt;NgUserManagementModule -->
<g id="edge1" class="edge">
<title>AdminPopupModule&#45;&gt;NgUserManagementModule</title>
<path fill="none" stroke="#000000" d="M524.9867,-122.1061C524.9867,-122.1061 524.9867,-140.991 524.9867,-140.991"/>
<polygon fill="#000000" stroke="#000000" points="521.4868,-140.9909 524.9867,-150.991 528.4868,-140.991 521.4868,-140.9909"/>
</g>
<!-- AdminPopupModule  -->
<g id="node3" class="node">
<title>AdminPopupModule </title>
<polygon fill="#fb8072" stroke="#000000" points="889.7205,-252 752.2795,-252 752.2795,-216 889.7205,-216 889.7205,-252"/>
<text text-anchor="middle" x="821" y="-229.8" font-family="Times,serif" font-size="14.00" fill="#000000">AdminPopupModule </text>
</g>
<!-- NgUserManagementModule&#45;&gt;AdminPopupModule  -->
<g id="edge2" class="edge">
<title>NgUserManagementModule&#45;&gt;AdminPopupModule </title>
<path fill="none" stroke="#000000" stroke-dasharray="5,2" d="M557.3701,-163C661.6393,-163 821,-163 821,-163 821,-163 821,-205.7157 821,-205.7157"/>
<polygon fill="#000000" stroke="#000000" points="817.5001,-205.7157 821,-215.7157 824.5001,-205.7158 817.5001,-205.7157"/>
</g>
<!-- GroupModule  -->
<g id="node4" class="node">
<title>GroupModule </title>
<polygon fill="#fb8072" stroke="#000000" points="734.3172,-252 635.6828,-252 635.6828,-216 734.3172,-216 734.3172,-252"/>
<text text-anchor="middle" x="685" y="-229.8" font-family="Times,serif" font-size="14.00" fill="#000000">GroupModule </text>
</g>
<!-- NgUserManagementModule&#45;&gt;GroupModule  -->
<g id="edge3" class="edge">
<title>NgUserManagementModule&#45;&gt;GroupModule </title>
<path fill="none" stroke="#000000" stroke-dasharray="5,2" d="M557.167,-175C616.8933,-175 685,-175 685,-175 685,-175 685,-205.9775 685,-205.9775"/>
<polygon fill="#000000" stroke="#000000" points="681.5001,-205.9774 685,-215.9775 688.5001,-205.9775 681.5001,-205.9774"/>
</g>
<!-- LoginProvidersModule  -->
<g id="node5" class="node">
<title>LoginProvidersModule </title>
<polygon fill="#fb8072" stroke="#000000" points="618.1467,-252 467.8533,-252 467.8533,-216 618.1467,-216 618.1467,-252"/>
<text text-anchor="middle" x="543" y="-229.8" font-family="Times,serif" font-size="14.00" fill="#000000">LoginProvidersModule </text>
</g>
<!-- NgUserManagementModule&#45;&gt;LoginProvidersModule  -->
<g id="edge4" class="edge">
<title>NgUserManagementModule&#45;&gt;LoginProvidersModule </title>
<path fill="none" stroke="#000000" stroke-dasharray="5,2" d="M512.5051,-187.1061C512.5051,-187.1061 512.5051,-205.991 512.5051,-205.991"/>
<polygon fill="#000000" stroke="#000000" points="509.0052,-205.9909 512.5051,-215.991 516.0052,-205.991 509.0052,-205.9909"/>
</g>
<!-- RegisterModule  -->
<g id="node6" class="node">
<title>RegisterModule </title>
<polygon fill="#fb8072" stroke="#000000" points="449.7024,-252 340.2976,-252 340.2976,-216 449.7024,-216 449.7024,-252"/>
<text text-anchor="middle" x="395" y="-229.8" font-family="Times,serif" font-size="14.00" fill="#000000">RegisterModule </text>
</g>
<!-- NgUserManagementModule&#45;&gt;RegisterModule  -->
<g id="edge5" class="edge">
<title>NgUserManagementModule&#45;&gt;RegisterModule </title>
<path fill="none" stroke="#000000" stroke-dasharray="5,2" d="M415.3837,-187.1061C415.3837,-187.1061 415.3837,-205.991 415.3837,-205.991"/>
<polygon fill="#000000" stroke="#000000" points="411.8838,-205.9909 415.3837,-215.991 418.8838,-205.991 411.8838,-205.9909"/>
</g>
<!-- SpinnerModule  -->
<g id="node7" class="node">
<title>SpinnerModule </title>
<polygon fill="#fb8072" stroke="#000000" points="322.099,-252 215.901,-252 215.901,-216 322.099,-216 322.099,-252"/>
<text text-anchor="middle" x="269" y="-229.8" font-family="Times,serif" font-size="14.00" fill="#000000">SpinnerModule </text>
</g>
<!-- NgUserManagementModule&#45;&gt;SpinnerModule  -->
<g id="edge6" class="edge">
<title>NgUserManagementModule&#45;&gt;SpinnerModule </title>
<path fill="none" stroke="#000000" stroke-dasharray="5,2" d="M380.4367,-175C341.4772,-175 304.4005,-175 304.4005,-175 304.4005,-175 304.4005,-205.9775 304.4005,-205.9775"/>
<polygon fill="#000000" stroke="#000000" points="300.9006,-205.9774 304.4005,-215.9775 307.9006,-205.9775 300.9006,-205.9774"/>
</g>
<!-- UserAdminSettingsModule  -->
<g id="node8" class="node">
<title>UserAdminSettingsModule </title>
<polygon fill="#fb8072" stroke="#000000" points="197.9783,-252 24.0217,-252 24.0217,-216 197.9783,-216 197.9783,-252"/>
<text text-anchor="middle" x="111" y="-229.8" font-family="Times,serif" font-size="14.00" fill="#000000">UserAdminSettingsModule </text>
</g>
<!-- NgUserManagementModule&#45;&gt;UserAdminSettingsModule  -->
<g id="edge7" class="edge">
<title>NgUserManagementModule&#45;&gt;UserAdminSettingsModule </title>
<path fill="none" stroke="#000000" stroke-dasharray="5,2" d="M380.5056,-163C274.4915,-163 111,-163 111,-163 111,-163 111,-205.7157 111,-205.7157"/>
<polygon fill="#000000" stroke="#000000" points="107.5001,-205.7157 111,-215.7157 114.5001,-205.7158 107.5001,-205.7157"/>
</g>
<!-- AdminPopupService -->
<g id="node9" class="node">
<title>AdminPopupService</title>
<ellipse fill="#fdb462" stroke="#000000" cx="378" cy="-104" rx="91.4963" ry="18"/>
<text text-anchor="middle" x="378" y="-99.8" font-family="Times,serif" font-size="14.00" fill="#000000">AdminPopupService</text>
</g>
<!-- AdminPopupService&#45;&gt;NgUserManagementModule -->
<g id="edge8" class="edge">
<title>AdminPopupService&#45;&gt;NgUserManagementModule</title>
<path fill="none" stroke="#000000" d="M425.2073,-119.7347C425.2073,-119.7347 425.2073,-140.6451 425.2073,-140.6451"/>
<polygon fill="#000000" stroke="#000000" points="421.7074,-140.645 425.2073,-150.6451 428.7074,-140.6451 421.7074,-140.645"/>
</g>
</g>
</svg>
