<?xml version="1.0" encoding="UTF-8" standalone="no"?>
<!DOCTYPE svg PUBLIC "-//W3C//DTD SVG 1.1//EN"
 "http://www.w3.org/Graphics/SVG/1.1/DTD/svg11.dtd">
<!-- Generated by graphviz version 2.40.1 (20161225.0304)
 -->
<!-- Title: dependencies Pages: 1 -->
<svg width="887pt" height="284pt"
 viewBox="0.00 0.00 887.00 284.00" xmlns="http://www.w3.org/2000/svg" xmlns:xlink="http://www.w3.org/1999/xlink">
<g id="graph0" class="graph" transform="scale(1 1) rotate(0) translate(4 280)">
<title>dependencies</title>
<polygon fill="#ffffff" stroke="transparent" points="-4,4 -4,-280 883,-280 883,4 -4,4"/>
<text text-anchor="start" x="418.5091" y="-42.4" font-family="sans-serif" font-weight="bold" font-size="14.00" fill="#000000">Legend</text>
<polygon fill="#ffffb3" stroke="transparent" points="205.5,-10 205.5,-30 225.5,-30 225.5,-10 205.5,-10"/>
<text text-anchor="start" x="229.129" y="-15.4" font-family="sans-serif" font-size="14.00" fill="#000000"> &#160;Declarations</text>
<polygon fill="#8dd3c7" stroke="transparent" points="318.5,-10 318.5,-30 338.5,-30 338.5,-10 318.5,-10"/>
<text text-anchor="start" x="342.2251" y="-15.4" font-family="sans-serif" font-size="14.00" fill="#000000"> &#160;Module</text>
<polygon fill="#80b1d3" stroke="transparent" points="404.5,-10 404.5,-30 424.5,-30 424.5,-10 404.5,-10"/>
<text text-anchor="start" x="428.2812" y="-15.4" font-family="sans-serif" font-size="14.00" fill="#000000"> &#160;Bootstrap</text>
<polygon fill="#fdb462" stroke="transparent" points="501.5,-10 501.5,-30 521.5,-30 521.5,-10 501.5,-10"/>
<text text-anchor="start" x="525.1732" y="-15.4" font-family="sans-serif" font-size="14.00" fill="#000000"> &#160;Providers</text>
<polygon fill="#fb8072" stroke="transparent" points="597.5,-10 597.5,-30 617.5,-30 617.5,-10 597.5,-10"/>
<text text-anchor="start" x="621.2258" y="-15.4" font-family="sans-serif" font-size="14.00" fill="#000000"> &#160;Exports</text>
<g id="clust1" class="cluster">
<title>cluster_GroupModule</title>
<polygon fill="none" stroke="#000000" stroke-dasharray="1,5" points="8,-70 8,-268 871,-268 871,-70 8,-70"/>
</g>
<g id="clust2" class="cluster">
<title>cluster_GroupModule_declarations</title>
<polygon fill="none" stroke="#000000" points="144,-78 144,-130 863,-130 863,-78 144,-78"/>
</g>
<g id="clust7" class="cluster">
<title>cluster_GroupModule_imports</title>
<polygon fill="none" stroke="#000000" points="16,-78 16,-130 136,-130 136,-78 16,-78"/>
</g>
<g id="clust8" class="cluster">
<title>cluster_GroupModule_exports</title>
<polygon fill="none" stroke="#000000" points="73,-208 73,-260 807,-260 807,-208 73,-208"/>
</g>
<!-- GroupCreateComponent -->
<g id="node1" class="node">
<title>GroupCreateComponent</title>
<polygon fill="#ffffb3" stroke="#000000" points="854.6316,-122 701.3684,-122 701.3684,-86 854.6316,-86 854.6316,-122"/>
<text text-anchor="middle" x="778" y="-99.8" font-family="Times,serif" font-size="14.00" fill="#000000">GroupCreateComponent</text>
</g>
<!-- GroupModule -->
<g id="node5" class="node">
<title>GroupModule</title>
<polygon fill="#8dd3c7" stroke="#000000" points="492.8175,-187 489.8175,-191 468.8175,-191 465.8175,-187 397.1825,-187 397.1825,-151 492.8175,-151 492.8175,-187"/>
<text text-anchor="middle" x="445" y="-164.8" font-family="Times,serif" font-size="14.00" fill="#000000">GroupModule</text>
</g>
<!-- GroupCreateComponent&#45;&gt;GroupModule -->
<g id="edge1" class="edge">
<title>GroupCreateComponent&#45;&gt;GroupModule</title>
<path fill="none" stroke="#000000" d="M749.875,-122.1061C749.875,-141.3391 749.875,-169 749.875,-169 749.875,-169 502.9721,-169 502.9721,-169"/>
<polygon fill="#000000" stroke="#000000" points="502.9721,-165.5001 492.9721,-169 502.9721,-172.5001 502.9721,-165.5001"/>
</g>
<!-- GroupListComponent -->
<g id="node2" class="node">
<title>GroupListComponent</title>
<polygon fill="#ffffb3" stroke="#000000" points="683.3781,-122 544.6219,-122 544.6219,-86 683.3781,-86 683.3781,-122"/>
<text text-anchor="middle" x="614" y="-99.8" font-family="Times,serif" font-size="14.00" fill="#000000">GroupListComponent</text>
</g>
<!-- GroupListComponent&#45;&gt;GroupModule -->
<g id="edge2" class="edge">
<title>GroupListComponent&#45;&gt;GroupModule</title>
<path fill="none" stroke="#000000" d="M583.875,-122.027C583.875,-138.3976 583.875,-160 583.875,-160 583.875,-160 502.7929,-160 502.7929,-160"/>
<polygon fill="#000000" stroke="#000000" points="502.7929,-156.5001 492.7929,-160 502.7929,-163.5001 502.7929,-156.5001"/>
</g>
<!-- GroupSettingsComponent -->
<g id="node3" class="node">
<title>GroupSettingsComponent</title>
<polygon fill="#ffffb3" stroke="#000000" points="526.2133,-122 363.7867,-122 363.7867,-86 526.2133,-86 526.2133,-122"/>
<text text-anchor="middle" x="445" y="-99.8" font-family="Times,serif" font-size="14.00" fill="#000000">GroupSettingsComponent</text>
</g>
<!-- GroupSettingsComponent&#45;&gt;GroupModule -->
<g id="edge3" class="edge">
<title>GroupSettingsComponent&#45;&gt;GroupModule</title>
<path fill="none" stroke="#000000" d="M445,-122.1061C445,-122.1061 445,-140.991 445,-140.991"/>
<polygon fill="#000000" stroke="#000000" points="441.5001,-140.9909 445,-150.991 448.5001,-140.991 441.5001,-140.9909"/>
</g>
<!-- GroupUsersSettingsComponent -->
<g id="node4" class="node">
<title>GroupUsersSettingsComponent</title>
<polygon fill="#ffffb3" stroke="#000000" points="346.0842,-122 151.9158,-122 151.9158,-86 346.0842,-86 346.0842,-122"/>
<text text-anchor="middle" x="249" y="-99.8" font-family="Times,serif" font-size="14.00" fill="#000000">GroupUsersSettingsComponent</text>
</g>
<!-- GroupUsersSettingsComponent&#45;&gt;GroupModule -->
<g id="edge4" class="edge">
<title>GroupUsersSettingsComponent&#45;&gt;GroupModule</title>
<path fill="none" stroke="#000000" d="M321.5928,-122.027C321.5928,-138.3976 321.5928,-160 321.5928,-160 321.5928,-160 387.2875,-160 387.2875,-160"/>
<polygon fill="#000000" stroke="#000000" points="387.2876,-163.5001 397.2875,-160 387.2875,-156.5001 387.2876,-163.5001"/>
</g>
<!-- GroupCreateComponent  -->
<g id="node7" class="node">
<title>GroupCreateComponent </title>
<polygon fill="#fb8072" stroke="#000000" points="798.6313,-252 641.3687,-252 641.3687,-216 798.6313,-216 798.6313,-252"/>
<text text-anchor="middle" x="720" y="-229.8" font-family="Times,serif" font-size="14.00" fill="#000000">GroupCreateComponent </text>
</g>
<!-- GroupModule&#45;&gt;GroupCreateComponent  -->
<g id="edge6" class="edge">
<title>GroupModule&#45;&gt;GroupCreateComponent </title>
<path fill="none" stroke="#000000" stroke-dasharray="5,2" d="M492.7174,-178C556.7235,-178 662.4367,-178 662.4367,-178 662.4367,-178 662.4367,-205.973 662.4367,-205.973"/>
<polygon fill="#000000" stroke="#000000" points="658.9368,-205.973 662.4367,-215.973 665.9368,-205.973 658.9368,-205.973"/>
</g>
<!-- GroupListComponent  -->
<g id="node8" class="node">
<title>GroupListComponent </title>
<polygon fill="#fb8072" stroke="#000000" points="623.3785,-252 480.6215,-252 480.6215,-216 623.3785,-216 623.3785,-252"/>
<text text-anchor="middle" x="552" y="-229.8" font-family="Times,serif" font-size="14.00" fill="#000000">GroupListComponent </text>
</g>
<!-- GroupModule&#45;&gt;GroupListComponent  -->
<g id="edge7" class="edge">
<title>GroupModule&#45;&gt;GroupListComponent </title>
<path fill="none" stroke="#000000" stroke-dasharray="5,2" d="M486.7348,-187.1061C486.7348,-187.1061 486.7348,-205.991 486.7348,-205.991"/>
<polygon fill="#000000" stroke="#000000" points="483.2348,-205.9909 486.7348,-215.991 490.2348,-205.991 483.2348,-205.9909"/>
</g>
<!-- GroupSettingsComponent  -->
<g id="node9" class="node">
<title>GroupSettingsComponent </title>
<polygon fill="#fb8072" stroke="#000000" points="462.7134,-252 297.2866,-252 297.2866,-216 462.7134,-216 462.7134,-252"/>
<text text-anchor="middle" x="380" y="-229.8" font-family="Times,serif" font-size="14.00" fill="#000000">GroupSettingsComponent </text>
</g>
<!-- GroupModule&#45;&gt;GroupSettingsComponent  -->
<g id="edge8" class="edge">
<title>GroupModule&#45;&gt;GroupSettingsComponent </title>
<path fill="none" stroke="#000000" stroke-dasharray="5,2" d="M430.0991,-187.1061C430.0991,-187.1061 430.0991,-205.991 430.0991,-205.991"/>
<polygon fill="#000000" stroke="#000000" points="426.5991,-205.9909 430.0991,-215.991 433.5991,-205.991 426.5991,-205.9909"/>
</g>
<!-- GroupUsersSettingsComponent  -->
<g id="node10" class="node">
<title>GroupUsersSettingsComponent </title>
<polygon fill="#fb8072" stroke="#000000" points="278.5846,-252 81.4154,-252 81.4154,-216 278.5846,-216 278.5846,-252"/>
<text text-anchor="middle" x="180" y="-229.8" font-family="Times,serif" font-size="14.00" fill="#000000">GroupUsersSettingsComponent </text>
</g>
<!-- GroupModule&#45;&gt;GroupUsersSettingsComponent  -->
<g id="edge9" class="edge">
<title>GroupModule&#45;&gt;GroupUsersSettingsComponent </title>
<path fill="none" stroke="#000000" stroke-dasharray="5,2" d="M397.1426,-178C329.8461,-178 215.375,-178 215.375,-178 215.375,-178 215.375,-205.973 215.375,-205.973"/>
<polygon fill="#000000" stroke="#000000" points="211.8751,-205.973 215.375,-215.973 218.8751,-205.973 211.8751,-205.973"/>
</g>
<!-- SpinnerModule -->
<g id="node6" class="node">
<title>SpinnerModule</title>
<polygon fill="#8dd3c7" stroke="#000000" points="127.5982,-122 124.5982,-126 103.5982,-126 100.5982,-122 24.4018,-122 24.4018,-86 127.5982,-86 127.5982,-122"/>
<text text-anchor="middle" x="76" y="-99.8" font-family="Times,serif" font-size="14.00" fill="#000000">SpinnerModule</text>
</g>
<!-- SpinnerModule&#45;&gt;GroupModule -->
<g id="edge5" class="edge">
<title>SpinnerModule&#45;&gt;GroupModule</title>
<path fill="none" stroke="#000000" d="M104.3785,-122.1061C104.3785,-141.3391 104.3785,-169 104.3785,-169 104.3785,-169 387.2794,-169 387.2794,-169"/>
<polygon fill="#000000" stroke="#000000" points="387.2794,-172.5001 397.2794,-169 387.2793,-165.5001 387.2794,-172.5001"/>
</g>
</g>
</svg>
