<?xml version="1.0" encoding="UTF-8" standalone="no"?>
<!DOCTYPE svg PUBLIC "-//W3C//DTD SVG 1.1//EN"
 "http://www.w3.org/Graphics/SVG/1.1/DTD/svg11.dtd">
<!-- Generated by graphviz version 2.40.1 (20161225.0304)
 -->
<!-- Title: dependencies Pages: 1 -->
<svg width="560pt" height="284pt"
 viewBox="0.00 0.00 560.00 284.00" xmlns="http://www.w3.org/2000/svg" xmlns:xlink="http://www.w3.org/1999/xlink">
<g id="graph0" class="graph" transform="scale(1 1) rotate(0) translate(4 280)">
<title>dependencies</title>
<polygon fill="#ffffff" stroke="transparent" points="-4,4 -4,-280 556,-280 556,4 -4,4"/>
<text text-anchor="start" x="255.0091" y="-42.4" font-family="sans-serif" font-weight="bold" font-size="14.00" fill="#000000">Legend</text>
<polygon fill="#ffffb3" stroke="transparent" points="42,-10 42,-30 62,-30 62,-10 42,-10"/>
<text text-anchor="start" x="65.629" y="-15.4" font-family="sans-serif" font-size="14.00" fill="#000000"> &#160;Declarations</text>
<polygon fill="#8dd3c7" stroke="transparent" points="155,-10 155,-30 175,-30 175,-10 155,-10"/>
<text text-anchor="start" x="178.7251" y="-15.4" font-family="sans-serif" font-size="14.00" fill="#000000"> &#160;Module</text>
<polygon fill="#80b1d3" stroke="transparent" points="241,-10 241,-30 261,-30 261,-10 241,-10"/>
<text text-anchor="start" x="264.7812" y="-15.4" font-family="sans-serif" font-size="14.00" fill="#000000"> &#160;Bootstrap</text>
<polygon fill="#fdb462" stroke="transparent" points="338,-10 338,-30 358,-30 358,-10 338,-10"/>
<text text-anchor="start" x="361.6732" y="-15.4" font-family="sans-serif" font-size="14.00" fill="#000000"> &#160;Providers</text>
<polygon fill="#fb8072" stroke="transparent" points="434,-10 434,-30 454,-30 454,-10 434,-10"/>
<text text-anchor="start" x="457.7258" y="-15.4" font-family="sans-serif" font-size="14.00" fill="#000000"> &#160;Exports</text>
<g id="clust1" class="cluster">
<title>cluster_LoginProvidersModule</title>
<polygon fill="none" stroke="#000000" stroke-dasharray="1,5" points="8,-70 8,-268 544,-268 544,-70 8,-70"/>
</g>
<g id="clust2" class="cluster">
<title>cluster_LoginProvidersModule_declarations</title>
<polygon fill="none" stroke="#000000" points="144,-78 144,-130 536,-130 536,-78 144,-78"/>
</g>
<g id="clust5" class="cluster">
<title>cluster_LoginProvidersModule_imports</title>
<polygon fill="none" stroke="#000000" points="16,-78 16,-130 136,-130 136,-78 16,-78"/>
</g>
<g id="clust6" class="cluster">
<title>cluster_LoginProvidersModule_exports</title>
<polygon fill="none" stroke="#000000" points="77,-208 77,-260 476,-260 476,-208 77,-208"/>
</g>
<!-- LoginEmailPasswordComponent -->
<g id="node1" class="node">
<title>LoginEmailPasswordComponent</title>
<polygon fill="#ffffb3" stroke="#000000" points="527.8682,-122 326.1318,-122 326.1318,-86 527.8682,-86 527.8682,-122"/>
<text text-anchor="middle" x="427" y="-99.8" font-family="Times,serif" font-size="14.00" fill="#000000">LoginEmailPasswordComponent</text>
</g>
<!-- LoginProvidersModule -->
<g id="node3" class="node">
<title>LoginProvidersModule</title>
<polygon fill="#8dd3c7" stroke="#000000" points="303.147,-187 300.147,-191 279.147,-191 276.147,-187 156.853,-187 156.853,-151 303.147,-151 303.147,-187"/>
<text text-anchor="middle" x="230" y="-164.8" font-family="Times,serif" font-size="14.00" fill="#000000">LoginProvidersModule</text>
</g>
<!-- LoginEmailPasswordComponent&#45;&gt;LoginProvidersModule -->
<g id="edge1" class="edge">
<title>LoginEmailPasswordComponent&#45;&gt;LoginProvidersModule</title>
<path fill="none" stroke="#000000" d="M396.875,-122.1061C396.875,-141.3391 396.875,-169 396.875,-169 396.875,-169 313.1938,-169 313.1938,-169"/>
<polygon fill="#000000" stroke="#000000" points="313.1938,-165.5001 303.1938,-169 313.1938,-172.5001 313.1938,-165.5001"/>
</g>
<!-- LoginGoogleComponent -->
<g id="node2" class="node">
<title>LoginGoogleComponent</title>
<polygon fill="#ffffb3" stroke="#000000" points="307.9874,-122 152.0126,-122 152.0126,-86 307.9874,-86 307.9874,-122"/>
<text text-anchor="middle" x="230" y="-99.8" font-family="Times,serif" font-size="14.00" fill="#000000">LoginGoogleComponent</text>
</g>
<!-- LoginGoogleComponent&#45;&gt;LoginProvidersModule -->
<g id="edge2" class="edge">
<title>LoginGoogleComponent&#45;&gt;LoginProvidersModule</title>
<path fill="none" stroke="#000000" d="M230,-122.1061C230,-122.1061 230,-140.991 230,-140.991"/>
<polygon fill="#000000" stroke="#000000" points="226.5001,-140.9909 230,-150.991 233.5001,-140.991 226.5001,-140.9909"/>
</g>
<!-- LoginEmailPasswordComponent  -->
<g id="node5" class="node">
<title>LoginEmailPasswordComponent </title>
<polygon fill="#fb8072" stroke="#000000" points="467.8685,-252 262.1315,-252 262.1315,-216 467.8685,-216 467.8685,-252"/>
<text text-anchor="middle" x="365" y="-229.8" font-family="Times,serif" font-size="14.00" fill="#000000">LoginEmailPasswordComponent </text>
</g>
<!-- LoginProvidersModule&#45;&gt;LoginEmailPasswordComponent  -->
<g id="edge4" class="edge">
<title>LoginProvidersModule&#45;&gt;LoginEmailPasswordComponent </title>
<path fill="none" stroke="#000000" stroke-dasharray="5,2" d="M282.8196,-187.1061C282.8196,-187.1061 282.8196,-205.991 282.8196,-205.991"/>
<polygon fill="#000000" stroke="#000000" points="279.3197,-205.9909 282.8196,-215.991 286.3197,-205.991 279.3197,-205.9909"/>
</g>
<!-- LoginGoogleComponent  -->
<g id="node6" class="node">
<title>LoginGoogleComponent </title>
<polygon fill="#fb8072" stroke="#000000" points="244.9881,-252 85.0119,-252 85.0119,-216 244.9881,-216 244.9881,-252"/>
<text text-anchor="middle" x="165" y="-229.8" font-family="Times,serif" font-size="14.00" fill="#000000">LoginGoogleComponent </text>
</g>
<!-- LoginProvidersModule&#45;&gt;LoginGoogleComponent  -->
<g id="edge5" class="edge">
<title>LoginProvidersModule&#45;&gt;LoginGoogleComponent </title>
<path fill="none" stroke="#000000" stroke-dasharray="5,2" d="M200.7102,-187.1061C200.7102,-187.1061 200.7102,-205.991 200.7102,-205.991"/>
<polygon fill="#000000" stroke="#000000" points="197.2103,-205.9909 200.7102,-215.991 204.2103,-205.991 197.2103,-205.9909"/>
</g>
<!-- SpinnerModule -->
<g id="node4" class="node">
<title>SpinnerModule</title>
<polygon fill="#8dd3c7" stroke="#000000" points="127.5982,-122 124.5982,-126 103.5982,-126 100.5982,-122 24.4018,-122 24.4018,-86 127.5982,-86 127.5982,-122"/>
<text text-anchor="middle" x="76" y="-99.8" font-family="Times,serif" font-size="14.00" fill="#000000">SpinnerModule</text>
</g>
<!-- SpinnerModule&#45;&gt;LoginProvidersModule -->
<g id="edge3" class="edge">
<title>SpinnerModule&#45;&gt;LoginProvidersModule</title>
<path fill="none" stroke="#000000" d="M106.4027,-122.1061C106.4027,-141.3391 106.4027,-169 106.4027,-169 106.4027,-169 146.6745,-169 146.6745,-169"/>
<polygon fill="#000000" stroke="#000000" points="146.6745,-172.5001 156.6745,-169 146.6744,-165.5001 146.6745,-172.5001"/>
</g>
</g>
</svg>
