<?xml version="1.0" encoding="UTF-8" standalone="no"?>
<!DOCTYPE svg PUBLIC "-//W3C//DTD SVG 1.1//EN"
 "http://www.w3.org/Graphics/SVG/1.1/DTD/svg11.dtd">
<!-- Generated by graphviz version 2.40.1 (20161225.0304)
 -->
<!-- Title: dependencies Pages: 1 -->
<svg width="504pt" height="284pt"
 viewBox="0.00 0.00 504.00 284.00" xmlns="http://www.w3.org/2000/svg" xmlns:xlink="http://www.w3.org/1999/xlink">
<g id="graph0" class="graph" transform="scale(1 1) rotate(0) translate(4 280)">
<title>dependencies</title>
<polygon fill="#ffffff" stroke="transparent" points="-4,4 -4,-280 500,-280 500,4 -4,4"/>
<text text-anchor="start" x="227.0091" y="-42.4" font-family="sans-serif" font-weight="bold" font-size="14.00" fill="#000000">Legend</text>
<polygon fill="#ffffb3" stroke="transparent" points="14,-10 14,-30 34,-30 34,-10 14,-10"/>
<text text-anchor="start" x="37.629" y="-15.4" font-family="sans-serif" font-size="14.00" fill="#000000"> &#160;Declarations</text>
<polygon fill="#8dd3c7" stroke="transparent" points="127,-10 127,-30 147,-30 147,-10 127,-10"/>
<text text-anchor="start" x="150.7251" y="-15.4" font-family="sans-serif" font-size="14.00" fill="#000000"> &#160;Module</text>
<polygon fill="#80b1d3" stroke="transparent" points="213,-10 213,-30 233,-30 233,-10 213,-10"/>
<text text-anchor="start" x="236.7812" y="-15.4" font-family="sans-serif" font-size="14.00" fill="#000000"> &#160;Bootstrap</text>
<polygon fill="#fdb462" stroke="transparent" points="310,-10 310,-30 330,-30 330,-10 310,-10"/>
<text text-anchor="start" x="333.6732" y="-15.4" font-family="sans-serif" font-size="14.00" fill="#000000"> &#160;Providers</text>
<polygon fill="#fb8072" stroke="transparent" points="406,-10 406,-30 426,-30 426,-10 406,-10"/>
<text text-anchor="start" x="429.7258" y="-15.4" font-family="sans-serif" font-size="14.00" fill="#000000"> &#160;Exports</text>
<g id="clust1" class="cluster">
<title>cluster_RegisterModule</title>
<polygon fill="none" stroke="#000000" stroke-dasharray="1,5" points="11.5,-70 11.5,-268 484.5,-268 484.5,-70 11.5,-70"/>
</g>
<g id="clust2" class="cluster">
<title>cluster_RegisterModule_declarations</title>
<polygon fill="none" stroke="#000000" points="332.5,-78 332.5,-130 476.5,-130 476.5,-78 332.5,-78"/>
</g>
<g id="clust4" class="cluster">
<title>cluster_RegisterModule_imports</title>
<polygon fill="none" stroke="#000000" points="19.5,-78 19.5,-130 324.5,-130 324.5,-78 19.5,-78"/>
</g>
<g id="clust5" class="cluster">
<title>cluster_RegisterModule_exports</title>
<polygon fill="none" stroke="#000000" points="190.5,-208 190.5,-260 338.5,-260 338.5,-208 190.5,-208"/>
</g>
<!-- RegisterComponent -->
<g id="node1" class="node">
<title>RegisterComponent</title>
<polygon fill="#ffffb3" stroke="#000000" points="468.4846,-122 340.5154,-122 340.5154,-86 468.4846,-86 468.4846,-122"/>
<text text-anchor="middle" x="404.5" y="-99.8" font-family="Times,serif" font-size="14.00" fill="#000000">RegisterComponent</text>
</g>
<!-- RegisterModule -->
<g id="node2" class="node">
<title>RegisterModule</title>
<polygon fill="#8dd3c7" stroke="#000000" points="317.7022,-187 314.7022,-191 293.7022,-191 290.7022,-187 211.2978,-187 211.2978,-151 317.7022,-151 317.7022,-187"/>
<text text-anchor="middle" x="264.5" y="-164.8" font-family="Times,serif" font-size="14.00" fill="#000000">RegisterModule</text>
</g>
<!-- RegisterComponent&#45;&gt;RegisterModule -->
<g id="edge1" class="edge">
<title>RegisterComponent&#45;&gt;RegisterModule</title>
<path fill="none" stroke="#000000" d="M404.5,-122.1061C404.5,-141.3391 404.5,-169 404.5,-169 404.5,-169 327.8274,-169 327.8274,-169"/>
<polygon fill="#000000" stroke="#000000" points="327.8274,-165.5001 317.8274,-169 327.8273,-172.5001 327.8274,-165.5001"/>
</g>
<!-- RegisterComponent  -->
<g id="node5" class="node">
<title>RegisterComponent </title>
<polygon fill="#fb8072" stroke="#000000" points="330.4855,-252 198.5145,-252 198.5145,-216 330.4855,-216 330.4855,-252"/>
<text text-anchor="middle" x="264.5" y="-229.8" font-family="Times,serif" font-size="14.00" fill="#000000">RegisterComponent </text>
</g>
<!-- RegisterModule&#45;&gt;RegisterComponent  -->
<g id="edge4" class="edge">
<title>RegisterModule&#45;&gt;RegisterComponent </title>
<path fill="none" stroke="#000000" stroke-dasharray="5,2" d="M264.5,-187.1061C264.5,-187.1061 264.5,-205.991 264.5,-205.991"/>
<polygon fill="#000000" stroke="#000000" points="261.0001,-205.9909 264.5,-215.991 268.0001,-205.991 261.0001,-205.9909"/>
</g>
<!-- SpinnerModule -->
<g id="node3" class="node">
<title>SpinnerModule</title>
<polygon fill="#8dd3c7" stroke="#000000" points="316.0982,-122 313.0982,-126 292.0982,-126 289.0982,-122 212.9018,-122 212.9018,-86 316.0982,-86 316.0982,-122"/>
<text text-anchor="middle" x="264.5" y="-99.8" font-family="Times,serif" font-size="14.00" fill="#000000">SpinnerModule</text>
</g>
<!-- SpinnerModule&#45;&gt;RegisterModule -->
<g id="edge2" class="edge">
<title>SpinnerModule&#45;&gt;RegisterModule</title>
<path fill="none" stroke="#000000" d="M264.5,-122.1061C264.5,-122.1061 264.5,-140.991 264.5,-140.991"/>
<polygon fill="#000000" stroke="#000000" points="261.0001,-140.9909 264.5,-150.991 268.0001,-140.991 261.0001,-140.9909"/>
</g>
<!-- ValidationMessageModule -->
<g id="node4" class="node">
<title>ValidationMessageModule</title>
<polygon fill="#8dd3c7" stroke="#000000" points="195.126,-122 192.126,-126 171.126,-126 168.126,-122 27.874,-122 27.874,-86 195.126,-86 195.126,-122"/>
<text text-anchor="middle" x="111.5" y="-99.8" font-family="Times,serif" font-size="14.00" fill="#000000">ValidationMessageModule</text>
</g>
<!-- ValidationMessageModule&#45;&gt;RegisterModule -->
<g id="edge3" class="edge">
<title>ValidationMessageModule&#45;&gt;RegisterModule</title>
<path fill="none" stroke="#000000" d="M111.5,-122.1061C111.5,-141.3391 111.5,-169 111.5,-169 111.5,-169 200.988,-169 200.988,-169"/>
<polygon fill="#000000" stroke="#000000" points="200.9881,-172.5001 210.988,-169 200.988,-165.5001 200.9881,-172.5001"/>
</g>
</g>
</svg>
