<?xml version="1.0" encoding="UTF-8" standalone="no"?>
<!DOCTYPE svg PUBLIC "-//W3C//DTD SVG 1.1//EN"
 "http://www.w3.org/Graphics/SVG/1.1/DTD/svg11.dtd">
<!-- Generated by graphviz version 2.40.1 (20161225.0304)
 -->
<!-- Title: dependencies Pages: 1 -->
<svg width="520pt" height="284pt"
 viewBox="0.00 0.00 520.00 284.00" xmlns="http://www.w3.org/2000/svg" xmlns:xlink="http://www.w3.org/1999/xlink">
<g id="graph0" class="graph" transform="scale(1 1) rotate(0) translate(4 280)">
<title>dependencies</title>
<polygon fill="#ffffff" stroke="transparent" points="-4,4 -4,-280 516,-280 516,4 -4,4"/>
<text text-anchor="start" x="235.0091" y="-42.4" font-family="sans-serif" font-weight="bold" font-size="14.00" fill="#000000">Legend</text>
<polygon fill="#ffffb3" stroke="transparent" points="22,-10 22,-30 42,-30 42,-10 22,-10"/>
<text text-anchor="start" x="45.629" y="-15.4" font-family="sans-serif" font-size="14.00" fill="#000000"> &#160;Declarations</text>
<polygon fill="#8dd3c7" stroke="transparent" points="135,-10 135,-30 155,-30 155,-10 135,-10"/>
<text text-anchor="start" x="158.7251" y="-15.4" font-family="sans-serif" font-size="14.00" fill="#000000"> &#160;Module</text>
<polygon fill="#80b1d3" stroke="transparent" points="221,-10 221,-30 241,-30 241,-10 221,-10"/>
<text text-anchor="start" x="244.7812" y="-15.4" font-family="sans-serif" font-size="14.00" fill="#000000"> &#160;Bootstrap</text>
<polygon fill="#fdb462" stroke="transparent" points="318,-10 318,-30 338,-30 338,-10 318,-10"/>
<text text-anchor="start" x="341.6732" y="-15.4" font-family="sans-serif" font-size="14.00" fill="#000000"> &#160;Providers</text>
<polygon fill="#fb8072" stroke="transparent" points="414,-10 414,-30 434,-30 434,-10 414,-10"/>
<text text-anchor="start" x="437.7258" y="-15.4" font-family="sans-serif" font-size="14.00" fill="#000000"> &#160;Exports</text>
<g id="clust1" class="cluster">
<title>cluster_UserAdminSettingsModule</title>
<polygon fill="none" stroke="#000000" stroke-dasharray="1,5" points="8,-70 8,-268 504,-268 504,-70 8,-70"/>
</g>
<g id="clust2" class="cluster">
<title>cluster_UserAdminSettingsModule_declarations</title>
<polygon fill="none" stroke="#000000" points="144,-78 144,-130 496,-130 496,-78 144,-78"/>
</g>
<g id="clust5" class="cluster">
<title>cluster_UserAdminSettingsModule_imports</title>
<polygon fill="none" stroke="#000000" points="16,-78 16,-130 136,-130 136,-78 16,-78"/>
</g>
<g id="clust6" class="cluster">
<title>cluster_UserAdminSettingsModule_exports</title>
<polygon fill="none" stroke="#000000" points="77,-208 77,-260 436,-260 436,-208 77,-208"/>
</g>
<!-- AdminSettingsComponent -->
<g id="node1" class="node">
<title>AdminSettingsComponent</title>
<polygon fill="#ffffb3" stroke="#000000" points="487.8341,-122 322.1659,-122 322.1659,-86 487.8341,-86 487.8341,-122"/>
<text text-anchor="middle" x="405" y="-99.8" font-family="Times,serif" font-size="14.00" fill="#000000">AdminSettingsComponent</text>
</g>
<!-- UserAdminSettingsModule -->
<g id="node3" class="node">
<title>UserAdminSettingsModule</title>
<polygon fill="#8dd3c7" stroke="#000000" points="312.9776,-187 309.9776,-191 288.9776,-191 285.9776,-187 143.0224,-187 143.0224,-151 312.9776,-151 312.9776,-187"/>
<text text-anchor="middle" x="228" y="-164.8" font-family="Times,serif" font-size="14.00" fill="#000000">UserAdminSettingsModule</text>
</g>
<!-- AdminSettingsComponent&#45;&gt;UserAdminSettingsModule -->
<g id="edge1" class="edge">
<title>AdminSettingsComponent&#45;&gt;UserAdminSettingsModule</title>
<path fill="none" stroke="#000000" d="M322.1009,-104C314.0017,-104 308.7125,-104 308.7125,-104 308.7125,-104 308.7125,-140.8939 308.7125,-140.8939"/>
<polygon fill="#000000" stroke="#000000" points="305.2126,-140.8938 308.7125,-150.8939 312.2126,-140.8939 305.2126,-140.8938"/>
</g>
<!-- UserSettingsComponent -->
<g id="node2" class="node">
<title>UserSettingsComponent</title>
<polygon fill="#ffffb3" stroke="#000000" points="304.3725,-122 151.6275,-122 151.6275,-86 304.3725,-86 304.3725,-122"/>
<text text-anchor="middle" x="228" y="-99.8" font-family="Times,serif" font-size="14.00" fill="#000000">UserSettingsComponent</text>
</g>
<!-- UserSettingsComponent&#45;&gt;UserAdminSettingsModule -->
<g id="edge2" class="edge">
<title>UserSettingsComponent&#45;&gt;UserAdminSettingsModule</title>
<path fill="none" stroke="#000000" d="M228,-122.1061C228,-122.1061 228,-140.991 228,-140.991"/>
<polygon fill="#000000" stroke="#000000" points="224.5001,-140.9909 228,-150.991 231.5001,-140.991 224.5001,-140.9909"/>
</g>
<!-- AdminSettingsComponent  -->
<g id="node5" class="node">
<title>AdminSettingsComponent </title>
<polygon fill="#fb8072" stroke="#000000" points="428.3339,-252 259.6661,-252 259.6661,-216 428.3339,-216 428.3339,-252"/>
<text text-anchor="middle" x="344" y="-229.8" font-family="Times,serif" font-size="14.00" fill="#000000">AdminSettingsComponent </text>
</g>
<!-- UserAdminSettingsModule&#45;&gt;AdminSettingsComponent  -->
<g id="edge4" class="edge">
<title>UserAdminSettingsModule&#45;&gt;AdminSettingsComponent </title>
<path fill="none" stroke="#000000" stroke-dasharray="5,2" d="M286.2859,-187.1061C286.2859,-187.1061 286.2859,-205.991 286.2859,-205.991"/>
<polygon fill="#000000" stroke="#000000" points="282.786,-205.9909 286.2859,-215.991 289.786,-205.991 282.786,-205.9909"/>
</g>
<!-- UserSettingsComponent  -->
<g id="node6" class="node">
<title>UserSettingsComponent </title>
<polygon fill="#fb8072" stroke="#000000" points="241.3728,-252 84.6272,-252 84.6272,-216 241.3728,-216 241.3728,-252"/>
<text text-anchor="middle" x="163" y="-229.8" font-family="Times,serif" font-size="14.00" fill="#000000">UserSettingsComponent </text>
</g>
<!-- UserAdminSettingsModule&#45;&gt;UserSettingsComponent  -->
<g id="edge5" class="edge">
<title>UserAdminSettingsModule&#45;&gt;UserSettingsComponent </title>
<path fill="none" stroke="#000000" stroke-dasharray="5,2" d="M192.0987,-187.1061C192.0987,-187.1061 192.0987,-205.991 192.0987,-205.991"/>
<polygon fill="#000000" stroke="#000000" points="188.5988,-205.9909 192.0987,-215.991 195.5988,-205.991 188.5988,-205.9909"/>
</g>
<!-- SpinnerModule -->
<g id="node4" class="node">
<title>SpinnerModule</title>
<polygon fill="#8dd3c7" stroke="#000000" points="127.5982,-122 124.5982,-126 103.5982,-126 100.5982,-122 24.4018,-122 24.4018,-86 127.5982,-86 127.5982,-122"/>
<text text-anchor="middle" x="76" y="-99.8" font-family="Times,serif" font-size="14.00" fill="#000000">SpinnerModule</text>
</g>
<!-- SpinnerModule&#45;&gt;UserAdminSettingsModule -->
<g id="edge3" class="edge">
<title>SpinnerModule&#45;&gt;UserAdminSettingsModule</title>
<path fill="none" stroke="#000000" d="M127.8079,-104C138.8639,-104 147.2875,-104 147.2875,-104 147.2875,-104 147.2875,-140.8939 147.2875,-140.8939"/>
<polygon fill="#000000" stroke="#000000" points="143.7876,-140.8938 147.2875,-150.8939 150.7876,-140.8939 143.7876,-140.8938"/>
</g>
</g>
</svg>
